<svg id="google" xmlns="http://www.w3.org/2000/svg" width="17.211" height="17.563" viewBox="0 0 17.211 17.563">
  <path id="Path_14" data-name="Path 14" d="M138.98,108.556a7.526,7.526,0,0,0-.185-1.8H130.55v3.259h4.839a4.291,4.291,0,0,1-1.8,2.849l-.016.109L136.185,115l.181.018a8.586,8.586,0,0,0,2.615-6.459" transform="translate(-121.769 -99.58)" fill="#4285f4"/>
  <path id="Path_15" data-name="Path 15" d="M21.77,163.415a8.37,8.37,0,0,0,5.815-2.127l-2.771-2.147a5.2,5.2,0,0,1-3.044.878,5.286,5.286,0,0,1-5-3.649l-.1.009-2.711,2.1-.035.1a8.775,8.775,0,0,0,7.845,4.84" transform="translate(-12.988 -145.852)" fill="#34a853"/>
  <path id="Path_16" data-name="Path 16" d="M3.786,77.033A5.406,5.406,0,0,1,3.493,75.3a5.681,5.681,0,0,1,.283-1.737l0-.116L1.026,71.312l-.09.043a8.763,8.763,0,0,0,0,7.884l2.849-2.205" transform="translate(0 -66.515)" fill="#fbbc05"/>
  <path id="Path_17" data-name="Path 17" d="M21.77,3.4a4.867,4.867,0,0,1,3.4,1.307l2.478-2.42A8.437,8.437,0,0,0,21.77,0a8.775,8.775,0,0,0-7.845,4.839l2.839,2.205A5.308,5.308,0,0,1,21.77,3.4" transform="translate(-12.988)" fill="#eb4335"/>
</svg>
