<svg xmlns="http://www.w3.org/2000/svg" width="21.733" height="21.24" viewBox="0 0 21.733 21.24">
  <g id="notification" transform="translate(-5 -6)">
    <path id="Path_133" data-name="Path 133" d="M26.83,17.915A6.915,6.915,0,1,1,19.915,11a6.915,6.915,0,0,1,6.915,6.915Z" transform="translate(-0.097 -0.061)" fill="#c5ffef"/>
    <path id="Path_134" data-name="Path 134" d="M16.458,25.729A1.729,1.729,0,1,1,14.729,24,1.729,1.729,0,0,1,16.458,25.729Z" transform="translate(-0.591 -0.218)" fill="#1d9878"/>
    <path id="Path_135" data-name="Path 135" d="M13.342,6a6.1,6.1,0,0,0-6.257,5.927v.988a1.044,1.044,0,0,0,2.086,0v-.988a4.066,4.066,0,0,1,4.171-3.952h2.086A4.066,4.066,0,0,1,19.6,11.927v7.9a.962.962,0,0,0,.305.7l.305.289H8.56l.305-.289a.962.962,0,0,0,.305-.7v-.988a1.044,1.044,0,0,0-2.086,0v.579l-1.78,1.686a.95.95,0,0,0-.226,1.077,1.045,1.045,0,0,0,.963.61H22.727a1.045,1.045,0,0,0,.963-.61.95.95,0,0,0-.226-1.077l-1.78-1.686V11.927A6.1,6.1,0,0,0,15.428,6ZM8.128,16.867a.989.989,0,1,0-1.043-.988A1.016,1.016,0,0,0,8.128,16.867Z" fill="#09dca4" fill-rule="evenodd"/>
  </g>
</svg>
