<svg xmlns="http://www.w3.org/2000/svg" width="19.5" height="30" viewBox="0 0 19.5 30">
  <g id="directions_walk_black_24dp" transform="translate(-8.061 -2.333)">
    <path id="Path_105" data-name="Path 105" d="M17.25,7.081a2.91,2.91,0,0,0,3-2.791,2.91,2.91,0,0,0-3-2.791,2.91,2.91,0,0,0-3,2.791A2.91,2.91,0,0,0,17.25,7.081ZM11.7,11.826,7.5,31.5h3.15l2.7-11.163,3.15,2.791V31.5h3V21.035l-3.15-2.791.9-4.186a11.347,11.347,0,0,0,8.25,3.488V14.756a7.506,7.506,0,0,1-6.45-3.349l-1.5-2.233A3.35,3.35,0,0,0,13.575,8L6,10.988v6.558H9V12.8l2.7-.977" transform="translate(2.061 0.833)" fill="#6f7c8e"/>
  </g>
</svg>
