<svg xmlns="http://www.w3.org/2000/svg" width="14.018" height="14" viewBox="0 0 14.018 14">
  <g id="directions_black_24dp" transform="translate(-1.005 -1.014)">
    <path id="Path_121" data-name="Path 121" d="M14.66,7.117,8.918,1.375a1.307,1.307,0,0,0-1.8,0L1.378,7.111a1.269,1.269,0,0,0,0,1.8l5.736,5.736a1.277,1.277,0,0,0,1.8,0l5.73-5.73A1.269,1.269,0,0,0,14.66,7.117ZM8.019,13.745,2.283,8.009,8.019,2.273l5.736,5.736ZM5.463,7.378V9.928H6.738V8.016H9.287V9.609l2.231-2.231L9.287,5.148V6.741H6.1A.639.639,0,0,0,5.463,7.378Z" transform="translate(0 0)" fill="#11abe6"/>
  </g>
</svg>
