<svg id="attach_file_black_24dp" xmlns="http://www.w3.org/2000/svg" width="15" height="15" viewBox="0 0 15 15">
  <path id="Path_112" data-name="Path 112" d="M0,0H15V15H0Z" fill="none"/>
  <path id="Path_113" data-name="Path 113" d="M12.584,4.142v7.226a2.436,2.436,0,0,1-2.351,2.514,2.436,2.436,0,0,1-2.351-2.514V3.514A1.523,1.523,0,0,1,9.351,1.943,1.523,1.523,0,0,1,10.82,3.514v6.6a.589.589,0,1,1-1.175,0V4.142H8.763v5.97a1.523,1.523,0,0,0,1.469,1.571A1.523,1.523,0,0,0,11.7,10.112v-6.6A2.436,2.436,0,0,0,9.351,1,2.436,2.436,0,0,0,7,3.514v7.855a3.348,3.348,0,0,0,3.233,3.456,3.348,3.348,0,0,0,3.233-3.456V4.142Z" transform="translate(-2.404 -0.412)"/>
</svg>
