<svg id="call_black_24dp" xmlns="http://www.w3.org/2000/svg" width="18" height="18" viewBox="0 0 18 18">
  <path id="Path_108" data-name="Path 108" d="M0,0H18V18H0Z" fill="none"/>
  <path id="Path_109" data-name="Path 109" d="M15.768,12.293a8.589,8.589,0,0,1-2.65-.42.734.734,0,0,0-.758.18l-1.178,1.479A11.4,11.4,0,0,1,6.01,8.4L7.474,7.158a.766.766,0,0,0,.18-.766,8.371,8.371,0,0,1-.42-2.65A.75.75,0,0,0,6.49,3h-2.6C3.488,3,3,3.18,3,3.743A12.874,12.874,0,0,0,15.768,16.511a.788.788,0,0,0,.743-.886v-2.59A.75.75,0,0,0,15.768,12.293Z" transform="translate(-0.755 -0.755)"/>
</svg>
