<svg xmlns="http://www.w3.org/2000/svg" width="17.081" height="17.081" viewBox="0 0 17.081 17.081">
  <g id="collections_black_24dp" transform="translate(0 0)">
    <path id="Path_23" data-name="Path 23" d="M0,0H17.081V17.081H0Z" transform="translate(0 0)" fill="none"/>
    <path id="Path_24" data-name="Path 24" d="M14.934,3.437V12.06H6.311V3.437h8.623m0-1.437H6.311A1.441,1.441,0,0,0,4.874,3.437V12.06A1.441,1.441,0,0,0,6.311,13.5h8.623a1.441,1.441,0,0,0,1.437-1.437V3.437A1.441,1.441,0,0,0,14.934,2ZM8.826,8.948l1.214,1.624,1.782-2.228,2.393,3H7.03ZM2,4.874v10.06a1.441,1.441,0,0,0,1.437,1.437H13.5V14.934H3.437V4.874Z" transform="translate(-0.645 -0.645)" fill="#fff"/>
  </g>
</svg>
