<svg id="mood_black_24dp" xmlns="http://www.w3.org/2000/svg" width="24.933" height="24.933" viewBox="0 0 24.933 24.933">
  <path id="Path_19" data-name="Path 19" d="M0,0H24.933V24.933H0Z" fill="none"/>
  <path id="Path_20" data-name="Path 20" d="M12.239,2A10.25,10.25,0,1,0,22.5,12.25,10.245,10.245,0,0,0,12.239,2Zm.01,18.449a8.2,8.2,0,1,1,8.2-8.2A8.2,8.2,0,0,1,12.25,20.449Zm3.587-9.225A1.537,1.537,0,1,0,14.3,9.687,1.535,1.535,0,0,0,15.837,11.225Zm-7.175,0A1.537,1.537,0,1,0,7.125,9.687,1.535,1.535,0,0,0,8.662,11.225Zm3.587,6.662A5.633,5.633,0,0,0,17.487,14.3H7.012A5.633,5.633,0,0,0,12.25,17.887Z" transform="translate(0.217 0.217)" fill="#6f7c8e"/>
</svg>
