<svg xmlns="http://www.w3.org/2000/svg" width="17.081" height="17.081" viewBox="0 0 17.081 17.081">
  <g id="photo_camera_black_24dp" transform="translate(0 0)">
    <path id="Path_21" data-name="Path 21" d="M0,0H17.081V17.081H0Z" transform="translate(0 0)" fill="none"/>
    <path id="Path_22" data-name="Path 22" d="M10.616,3.432l1.3,1.432H14.8v8.589H3.422V4.863H6.3L7.6,3.432h3.014M11.242,2H6.976l-1.3,1.432H3.422A1.431,1.431,0,0,0,2,4.863v8.589a1.431,1.431,0,0,0,1.422,1.432H14.8a1.431,1.431,0,0,0,1.422-1.432V4.863A1.431,1.431,0,0,0,14.8,3.432H12.542ZM9.109,7.01A2.147,2.147,0,1,1,6.976,9.158,2.146,2.146,0,0,1,9.109,7.01m0-1.432a3.579,3.579,0,1,0,3.554,3.579A3.568,3.568,0,0,0,9.109,5.579Z" transform="translate(-0.568 -0.568)" fill="#fff"/>
  </g>
</svg>
