<svg xmlns="http://www.w3.org/2000/svg" width="12.222" height="11" viewBox="0 0 12.222 11">
  <g id="photo_camera_black_24dp" transform="translate(-2 -2)">
    <circle id="Ellipse_34" data-name="Ellipse 34" cx="2.228" cy="2.228" r="2.228" transform="translate(5.883 5.837)" fill="#fff"/>
    <path id="Path_137" data-name="Path 137" d="M6.278,2,5.159,3.222H3.222A1.226,1.226,0,0,0,2,4.444v7.333A1.226,1.226,0,0,0,3.222,13H13a1.226,1.226,0,0,0,1.222-1.222V4.444A1.226,1.226,0,0,0,13,3.222H11.063L9.944,2Zm1.833,9.167a3.056,3.056,0,1,1,3.056-3.056A3.057,3.057,0,0,1,8.111,11.167Z" transform="translate(0 0)" fill="#fff"/>
  </g>
</svg>
