<svg id="facebook-logo-2019" xmlns="http://www.w3.org/2000/svg" width="17.415" height="17.415" viewBox="0 0 17.415 17.415">
  <path id="Path_12" data-name="Path 12" d="M17.415,8.706a8.708,8.708,0,1,0-10.068,8.6V11.223H5.136V8.706H7.347V6.788A3.073,3.073,0,0,1,10.636,3.4a13.392,13.392,0,0,1,1.949.17V5.713h-1.1a1.258,1.258,0,0,0-1.419,1.36V8.706h2.415L12.1,11.223H10.068v6.084A8.709,8.709,0,0,0,17.415,8.706Z" fill="#1877f2"/>
  <path id="Path_13" data-name="Path 13" d="M309.146,208.031l.4-2.584h-2.479V203.77a1.292,1.292,0,0,1,1.457-1.4h1.127v-2.2a13.745,13.745,0,0,0-2-.175,3.154,3.154,0,0,0-3.376,3.478v1.969H302v2.584h2.27v6.246a9.033,9.033,0,0,0,2.793,0v-6.246Z" transform="translate(-296.966 -196.97)" fill="#fff"/>
</svg>
