<svg id="phone_black_24dp" xmlns="http://www.w3.org/2000/svg" width="15" height="15" viewBox="0 0 15 15">
  <path id="Path_18" data-name="Path 18" d="M5.95,4.667a10.26,10.26,0,0,0,.375,2.158l-1,1a12.355,12.355,0,0,1-.633-3.158H5.95m8.217,10.017a10.627,10.627,0,0,0,2.167.375V16.3a12.855,12.855,0,0,1-3.167-.625l1-.992M6.75,3H3.833A.836.836,0,0,0,3,3.833,14.165,14.165,0,0,0,17.167,18,.836.836,0,0,0,18,17.167V14.258a.836.836,0,0,0-.833-.833,9.506,9.506,0,0,1-2.975-.475.7.7,0,0,0-.258-.042.854.854,0,0,0-.592.242l-1.833,1.833A12.624,12.624,0,0,1,6.017,9.492L7.85,7.658a.836.836,0,0,0,.208-.85,9.467,9.467,0,0,1-.475-2.975A.836.836,0,0,0,6.75,3Z" transform="translate(-3 -3)" fill="#fff"/>
</svg>
