<svg id="local_offer_black_24dp" xmlns="http://www.w3.org/2000/svg" width="18" height="18" viewBox="0 0 18 18">
  <path id="Path_81" data-name="Path 81" d="M18,0H0V18H18Z" fill="none"/>
  <path id="Path_82" data-name="Path 82" d="M2.444,9.2,9.21,2.436A1.494,1.494,0,0,1,10.27,2h5.263a1.508,1.508,0,0,1,1.5,1.5V8.767a1.5,1.5,0,0,1-.444,1.068L9.827,16.6a1.494,1.494,0,0,1-1.06.436,1.47,1.47,0,0,1-1.06-.444L2.444,11.331A1.47,1.47,0,0,1,2,10.271,1.519,1.519,0,0,1,2.444,9.2ZM14.406,5.759a1.128,1.128,0,1,0-1.128-1.128A1.126,1.126,0,0,0,14.406,5.759Z" transform="translate(-0.519 -0.519)" fill="#6f7c8e"/>
</svg>
