<svg xmlns="http://www.w3.org/2000/svg" width="17" height="17" viewBox="0 0 17 17">
  <g id="question_answer_black_24dp" transform="translate(-5.668 -5.668)">
    <path id="Path_115" data-name="Path 115" d="M13.05,3.7V9.65H4.694l-.5.5-.493.493V3.7h9.35M13.9,2H2.85A.852.852,0,0,0,2,2.85v11.9l3.4-3.4h8.5a.852.852,0,0,0,.85-.85V2.85A.852.852,0,0,0,13.9,2Zm4.25,3.4h-1.7v7.65H5.4v1.7a.852.852,0,0,0,.85.85H15.6L19,19V6.25A.852.852,0,0,0,18.15,5.4Z" transform="translate(3.668 3.668)" fill="#fff"/>
  </g>
</svg>
