<svg xmlns="http://www.w3.org/2000/svg" width="79" height="16.686" viewBox="0 0 79 16.686">
  <g id="Page-1" transform="translate(-0.808 -0.482)">
    <g id="Group" transform="translate(0.808 0.482)">
      <path id="Fill-1" d="M266,80.354a1.632,1.632,0,0,1-.727,1.023,2.936,2.936,0,0,1-1.515.327h-2.068l.726-2.7h2.068a2.047,2.047,0,0,1,1.34.326A.953.953,0,0,1,266,80.354m2.142-.058a2.275,2.275,0,0,0-.327-2.249,3.337,3.337,0,0,0-2.527-.784h-4.616L257.9,87.595h2.243l1.12-4.165h1.471a1.6,1.6,0,0,1,.779.16.7.7,0,0,1,.336.566l.4,3.439h2.4l-.39-3.207a1.268,1.268,0,0,0-.986-1.262,4.243,4.243,0,0,0,1.851-1.06,3.863,3.863,0,0,0,1.022-1.77" transform="translate(-247.154 -74.054)" fill="#fff" fill-rule="evenodd"/>
      <path id="Fill-3" d="M500.842,148.033a3.341,3.341,0,0,1-.866,1.6,1.967,1.967,0,0,1-1.4.553,1.166,1.166,0,0,1-1.128-.546,2.17,2.17,0,0,1-.021-1.58,3.4,3.4,0,0,1,.884-1.617,1.991,1.991,0,0,1,1.423-.582,1.12,1.12,0,0,1,1.1.561,2.3,2.3,0,0,1,.006,1.609Zm.983-3.67-.281,1.049a1.647,1.647,0,0,0-.7-.9,2.351,2.351,0,0,0-1.294-.335,3.682,3.682,0,0,0-1.82.488,4.8,4.8,0,0,0-1.526,1.376,6.007,6.007,0,0,0-.958,2.024,4.315,4.315,0,0,0-.122,2,2.169,2.169,0,0,0,.794,1.333,2.516,2.516,0,0,0,1.572.466,3.48,3.48,0,0,0,1.469-.32,3.421,3.421,0,0,0,1.185-.888l-.293,1.092h2.17l1.978-7.383Z" transform="translate(-474.45 -138.194)" fill="#fff" fill-rule="evenodd"/>
      <path id="Fill-5" d="M704.475,148.706h-6.306l-.441,1.646h3.67l-4.852,4.194-.414,1.544h6.51l.441-1.645h-3.932l4.925-4.253Z" transform="translate(-667.149 -142.537)" fill="#fff" fill-rule="evenodd"/>
      <path id="Fill-7" d="M897.021,148.019a3.391,3.391,0,0,1-.867,1.631,1.956,1.956,0,0,1-1.389.539q-1.7,0-1.123-2.17a3.366,3.366,0,0,1,.872-1.624,1.992,1.992,0,0,1,1.413-.546,1.121,1.121,0,0,1,1.1.546,2.323,2.323,0,0,1-.005,1.624m1.269-3.379a3.572,3.572,0,0,0-1.914-.466,5.139,5.139,0,0,0-2.186.466,4.745,4.745,0,0,0-1.713,1.34,5.429,5.429,0,0,0-1.02,2.039,3.89,3.89,0,0,0-.073,2.039,2.2,2.2,0,0,0,1,1.34,3.636,3.636,0,0,0,1.936.466,5.052,5.052,0,0,0,2.164-.466,4.771,4.771,0,0,0,1.706-1.34,5.437,5.437,0,0,0,1.019-2.039,3.889,3.889,0,0,0,.073-2.039,2.208,2.208,0,0,0-.988-1.34" transform="translate(-854.164 -138.194)" fill="#fff" fill-rule="evenodd"/>
      <path id="Fill-9" d="M1469.361,148.033a3.344,3.344,0,0,1-.866,1.6,1.967,1.967,0,0,1-1.4.553,1.166,1.166,0,0,1-1.127-.546,2.168,2.168,0,0,1-.021-1.58,3.4,3.4,0,0,1,.884-1.617,1.991,1.991,0,0,1,1.423-.582,1.12,1.12,0,0,1,1.1.561,2.3,2.3,0,0,1,.006,1.609Zm.983-3.67-.281,1.049a1.646,1.646,0,0,0-.7-.9,2.35,2.35,0,0,0-1.294-.335,3.683,3.683,0,0,0-1.82.488,4.806,4.806,0,0,0-1.526,1.376,6,6,0,0,0-.957,2.024,4.32,4.32,0,0,0-.121,2,2.166,2.166,0,0,0,.793,1.333,2.517,2.517,0,0,0,1.572.466,3.482,3.482,0,0,0,1.469-.32,3.419,3.419,0,0,0,1.185-.888l-.293,1.092h2.17l1.979-7.383Z" transform="translate(-1402.622 -138.194)" fill="#fff" fill-rule="evenodd"/>
      <path id="Fill-11" d="M1094.746,146.678l.553-2.01a1.633,1.633,0,0,0-.747-.146,2.981,2.981,0,0,0-1.432.371,3.146,3.146,0,0,0-1.015.885l.288-1.082h-2.169l-1.994,7.383h2.2l1.034-3.859a2.447,2.447,0,0,1,.812-1.318,2.246,2.246,0,0,1,1.459-.473,2.151,2.151,0,0,1,1.012.247" transform="translate(-1042.901 -138.528)" fill="#fff" fill-rule="evenodd"/>
      <path id="Fill-13" d="M1220.818,148.066a3.269,3.269,0,0,1-.86,1.58,1.975,1.975,0,0,1-1.4.546,1.144,1.144,0,0,1-1.111-.553,2.227,2.227,0,0,1-.015-1.6,3.345,3.345,0,0,1,.875-1.609,1.987,1.987,0,0,1,1.411-.561,1.1,1.1,0,0,1,1.089.583,2.333,2.333,0,0,1,.011,1.616m1.537-3.4a2.424,2.424,0,0,0-1.559-.488,3.454,3.454,0,0,0-1.579.378A3.279,3.279,0,0,0,1218,145.59l.007-.048.37-1.176h-2.147l-.547,2.042c-.007.024-.012.046-.018.07l-2.255,8.417h2.2l1.136-4.237a1.515,1.515,0,0,0,.694.888,2.452,2.452,0,0,0,1.3.32,3.809,3.809,0,0,0,1.829-.466,4.537,4.537,0,0,0,1.507-1.333,5.91,5.91,0,0,0,.944-2,4.472,4.472,0,0,0,.127-2.024,2.254,2.254,0,0,0-.789-1.376" transform="translate(-1162.868 -138.21)" fill="#fff" fill-rule="evenodd"/>
      <path id="Fill-15" d="M1672.582,148.708v0h-1.332l-.119,0h-.691l-.354.493c-.028.037-.057.074-.087.118l-.038.057-2.81,3.913-.583-4.583h-2.3l1.166,6.963-2.574,3.565h2.293l.624-.884.054-.076.728-1.032.021-.03,3.257-4.617,2.745-3.886,0,0Z" transform="translate(-1593.584 -142.549)" fill="#fff" fill-rule="evenodd"/>
      <path id="Fill-17" d="M107.536,4.878,106.878,7.3l3.767-2.436-2.464,9.192,2.5,0L114.323.482Z" transform="translate(-102.446 -0.482)" fill="#fff" fill-rule="evenodd"/>
      <path id="Fill-19" d="M1.843,141.263.808,145.127H5.936l2.1-7.861-6.191,4" transform="translate(-0.808 -131.574)" fill="#fff" fill-rule="evenodd"/>
    </g>
  </g>
</svg>
