<svg id="assignment_black_24dp" xmlns="http://www.w3.org/2000/svg" width="22" height="22" viewBox="0 0 22 22">
  <path id="Path_45" data-name="Path 45" d="M0,0H22V22H0Z" fill="none"/>
  <path id="Path_46" data-name="Path 46" d="M6.667,13.833h6.417v1.833H6.667Zm0-3.667h9.167V12H6.667Zm0-3.667h9.167V8.333H6.667Zm11-3.667H13.835a2.739,2.739,0,0,0-5.17,0H4.833a1.606,1.606,0,0,0-.367.037,1.852,1.852,0,0,0-1.32,1.091A1.766,1.766,0,0,0,3,4.667V17.5a1.881,1.881,0,0,0,.147.715,1.943,1.943,0,0,0,.394.587,1.841,1.841,0,0,0,.926.5,2.379,2.379,0,0,0,.367.028H17.667A1.839,1.839,0,0,0,19.5,17.5V4.667A1.839,1.839,0,0,0,17.667,2.833ZM11.25,2.6a.688.688,0,1,1-.687.688A.693.693,0,0,1,11.25,2.6Zm6.417,14.9H4.833V4.667H17.667Z" transform="translate(-0.25 -0.083)" fill="#6f7c8e"/>
</svg>
