<svg id="book_black_24dp" xmlns="http://www.w3.org/2000/svg" width="22" height="22" viewBox="0 0 22 22">
  <path id="Path_47" data-name="Path 47" d="M0,0H22V22H0Z" fill="none"/>
  <path id="Path_48" data-name="Path 48" d="M16.833,2h-11A1.839,1.839,0,0,0,4,3.833V18.5a1.839,1.839,0,0,0,1.833,1.833h11A1.839,1.839,0,0,0,18.667,18.5V3.833A1.839,1.839,0,0,0,16.833,2ZM8.583,3.833h1.833V8.417L9.5,7.729l-.917.688ZM16.833,18.5h-11V3.833H6.75v8.25L9.5,10.021l2.75,2.063V3.833h4.583Z" transform="translate(-0.333 -0.167)" fill="#6f7c8e"/>
</svg>
