<svg id="contact_support_black_24dp" xmlns="http://www.w3.org/2000/svg" width="22" height="22" viewBox="0 0 22 22">
  <path id="Path_49" data-name="Path 49" d="M0,0H22V22H0Z" fill="none"/>
  <path id="Path_50" data-name="Path 50" d="M10.25,21.708v-3.3a8.71,8.71,0,1,1,9.167-8.7c0,4.538-3.153,9.1-7.856,11.367Zm.458-18.874a6.875,6.875,0,1,0,0,13.75h1.375v2.108c3.337-2.108,5.5-5.573,5.5-8.983A6.878,6.878,0,0,0,10.708,2.833ZM9.792,13.375h1.833v1.833H9.792ZM11.625,12H9.792c0-2.979,2.75-2.75,2.75-4.583a1.833,1.833,0,1,0-3.667,0H7.042a3.667,3.667,0,0,1,7.333,0C14.375,9.708,11.625,9.938,11.625,12Z" transform="translate(-0.167 -0.083)" fill="#6f7c8e"/>
</svg>
