<svg id="history_black_24dp" xmlns="http://www.w3.org/2000/svg" width="22" height="22" viewBox="0 0 22 22">
  <path id="Path_130" data-name="Path 130" d="M0,0H22V22H0Z" fill="none"/>
  <path id="Path_131" data-name="Path 131" d="M11.857,3a8.073,8.073,0,0,0-8.143,8H1l3.52,3.458.063.124L8.238,11H5.524a6.274,6.274,0,0,1,6.333-6.222,6.223,6.223,0,1,1,0,12.444,6.339,6.339,0,0,1-4.47-1.831L6.1,16.653A8.175,8.175,0,0,0,11.857,19,8.073,8.073,0,0,0,20,11,8.073,8.073,0,0,0,11.857,3Zm-.9,4.444v4.444l3.872,2.258.651-1.076L12.31,11.222V7.444Z" fill="#6f7c8e"/>
</svg>
