<svg xmlns="http://www.w3.org/2000/svg" width="22" height="22" viewBox="0 0 22 22">
  <g id="other_houses_black_24dp" transform="translate(0.387 0.387)">
    <rect id="Rectangle_423" data-name="Rectangle 423" width="22" height="22" transform="translate(-0.387 -0.387)" fill="none"/>
    <path id="Path_53" data-name="Path 53" d="M10.729,3,1,10.429l1.07,1.406,1.583-1.212v8.3H17.8v-8.3l1.583,1.2,1.07-1.4Zm5.307,14.151H5.422V9.279l5.307-4.051,5.307,4.051Zm-7.96-4.422a.884.884,0,1,1-.884-.884A.887.887,0,0,1,8.075,12.729Zm2.653-.884a.884.884,0,1,1-.884.884A.887.887,0,0,1,10.729,11.844Zm2.653.884a.884.884,0,1,1,.884.884A.887.887,0,0,1,13.382,12.729Z" transform="translate(-0.116 -0.347)" fill="#09dca4"/>
  </g>
</svg>
