<svg id="policy_black_24dp" xmlns="http://www.w3.org/2000/svg" width="22" height="22" viewBox="0 0 22 22">
  <g id="Group_14" data-name="Group 14">
    <rect id="Rectangle_424" data-name="Rectangle 424" width="22" height="22" fill="none"/>
  </g>
  <g id="Group_16" data-name="Group 16" transform="translate(2.75 0.917)">
    <g id="Group_15" data-name="Group 15">
      <path id="Path_54" data-name="Path 54" d="M11.25,1,3,4.667v5.5c0,5.087,3.52,9.845,8.25,11,4.73-1.155,8.25-5.913,8.25-11v-5.5Zm6.417,9.167A9.855,9.855,0,0,1,16.4,14.942l-1.329-1.329a4.583,4.583,0,1,0-1.3,1.3l1.577,1.577a8.722,8.722,0,0,1-4.1,2.787,9.621,9.621,0,0,1-6.417-9.112V5.858L11.25,3.008l6.417,2.851ZM11.25,13.833A2.75,2.75,0,1,1,14,11.083,2.746,2.746,0,0,1,11.25,13.833Z" transform="translate(-3 -1)" fill="#6f7c8e"/>
    </g>
  </g>
</svg>
