<svg id="notifications_black_24dp" xmlns="http://www.w3.org/2000/svg" width="19.993" height="19.993" viewBox="0 0 19.993 19.993">
  <path id="Path_31" data-name="Path 31" d="M0,0H19.993V19.993H0Z" fill="none"/>
  <path id="Path_32" data-name="Path 32" d="M10.592,18.663a1.658,1.658,0,0,0,1.648-1.658h-3.3A1.658,1.658,0,0,0,10.592,18.663Zm4.944-4.973V9.545c0-2.545-1.343-4.675-3.708-5.238V3.743a1.236,1.236,0,1,0-2.472,0v.564C7,4.871,5.648,6.992,5.648,9.545V13.69L4,15.347v.829H17.184v-.829Zm-1.648.829H7.3V9.545c0-2.056,1.244-3.73,3.3-3.73s3.3,1.674,3.3,3.73Z" transform="translate(-0.596 -0.372)" fill="#fff"/>
</svg>
